#!OML:ASF F:\VICON\USERDATA\INSTALL\rory3\rory3.ASF
:FULLY-SPECIFIED
:DEGREES
48
root 0.712806 17.7602 -26.2042 -0.31246 5.94727 -4.30761
lowerback 22.1329 -0.50397 0.112183
upperback 2.16704 -0.370111 2.33801
thorax -9.99669 -0.11975 2.62952
lowerneck -8.08461 3.43635 -0.25324
upperneck 28.9128 5.88002 -3.09501
head 10.6911 2.32316 -0.393594
rclavicle 1.61885e-014 -9.01985e-015
rhumerus -43.7462 -17.4938 -64.673
rradius 35.0102
rwrist -2.2479
rhand -8.32885 6.54483
rfingers 7.12502
rthumb 17.5924 -22.6792
lclavicle 1.61885e-014 -9.01985e-015
lhumerus -44.8617 22.2275 76.8257
lradius 90.3847
lwrist 88.0984
lhand -16.8482 63.5412
lfingers 7.12502
lthumb 9.38181 -93.3124
rfemur -19.4623 2.79623 28.6405
rtibia 31.314
rfoot -10.4129 -13.1048
rtoes 21.9316
lfemur -11.8059 -3.21597 -13.6631
ltibia 64.3577
lfoot 16.8158 -7.25909
ltoes -11.6205
49
root 0.711637 17.7671 -26.0402 -0.0662779 5.12066 -4.43221
lowerback 20.7385 -0.257234 0.250348
upperback 3.07118 -0.0479921 2.42991
thorax -8.25568 0.00943785 2.51407
lowerneck -9.16013 3.36977 -0.351256
upperneck 28.1615 5.88563 -3.46837
head 10.6328 2.27112 -0.489232
rclavicle 1.63997e-014 6.41081e-015
rhumerus -42.0434 -18.0724 -64.9574
rradius 35.2279
rwrist -2.21599
rhand -8.15472 6.90909
rfingers 7.12502
rthumb 17.76 -22.2999
lclavicle 1.63997e-014 6.41081e-015
lhumerus -43.3993 22.8127 77.5587
lradius 92.0573
lwrist 86.5992
lhand -16.8708 63.2519
lfingers 7.12502
lthumb 9.36005 -93.0241
rfemur -18.9654 3.03211 28.8805
rtibia 30.9623
rfoot -10.6253 -12.536
rtoes 21.2265
lfemur -13.5345 -2.18226 -13.7078
ltibia 65.6328
lfoot 14.6392 -6.83939
ltoes -12.8285
50
root 0.687374 17.7832 -25.8525 -0.633711 6.22226 -4.62418
lowerback 20.9364 -0.569394 0.289881
upperback 2.75553 -0.40784 2.72058
thorax -8.69251 -0.152758 2.91924
lowerneck -7.38139 3.19088 -0.293626
upperneck 27.9904 5.61046 -3.60155
head 10.2203 2.17142 -0.61319
rclavicle 4.4975e-015 -1.27222e-014
rhumerus -43.0316 -17.2582 -64.4069
rradius 35.8058
rwrist -2.70591
rhand -8.17614 6.79613
rfingers 7.12502
rthumb 17.7394 -22.4147
lclavicle 4.4975e-015 -1.27222e-014
lhumerus -44.7027 22.213 77.707
lradius 93.9484
lwrist 84.1129
lhand -18.6171 64.6562
lfingers 7.12502
lthumb 7.67474 -94.497
rfemur -17.4406 2.71927 29.284
rtibia 30.63
rfoot -11.5081 -13.2772
rtoes 21.5324
lfemur -14.6453 -2.87444 -13.4873
ltibia 66.609
lfoot 12.8807 -6.78195
ltoes -14.8247
51
root 0.665765 17.7942 -25.665 -0.838435 6.36146 -4.72666
lowerback 21.236 -0.65422 0.525934
upperback 2.36874 -0.460802 2.60923
thorax -9.28265 -0.180924 2.69273
lowerneck -6.91025 2.97886 -0.262063
upperneck 28.3572 5.24557 -3.34415
head 10.248 2.03528 -0.575899
rclavicle -1.03368e-014 8.94531e-015
rhumerus -43.6151 -17.0948 -64.4077
rradius 36.0941
rwrist -2.81896
rhand -8.50256 6.39581
rfingers 7.12502
rthumb 17.4252 -22.8432
lclavicle -1.03368e-014 8.94531e-015
lhumerus -45.7954 21.9419 76.8305
lradius 95.7326
lwrist 82.033
lhand -18.2531 64.7543
lfingers 7.12502
lthumb 8.02602 -94.5819
rfemur -16.3198 2.72368 29.606
rtibia 30.3204
rfoot -12.0867 -13.4304
rtoes 21.6449
lfemur -15.8947 -2.68692 -13.4223
ltibia 67.3611
lfoot 10.9241 -6.52341
ltoes -15.6639
52
root 0.668931 17.7872 -25.5184 -0.690403 4.74974 -4.84691
lowerback 21.417 -0.233523 0.637461
upperback 2.36595 0.118725 2.61729
thorax -9.40788 0.089839 2.47434
lowerneck -7.90787 2.98281 -0.807851
upperneck 28.8556 5.30448 -3.00305
head 10.6061 2.01618 -0.335439
rclavicle -7.70291e-016 1.10325e-014
rhumerus -42.913 -16.9933 -64.5848
rradius 36.3342
rwrist -2.87881
rhand -8.6694 6.26256
rfingers 7.12502
rthumb 17.2647 -22.9906
lclavicle -7.70291e-016 1.10325e-014
lhumerus -45.6377 22.1527 76.8946
lradius 97.5284
lwrist 80.6364
lhand -20.3675 65.5322
lfingers 7.12502
lthumb 5.98497 -95.4277
rfemur -15.825 2.99914 29.8341
rtibia 30.0359
rfoot -11.9095 -12.2795
rtoes 20.2045
lfemur -17.3371 -0.979939 -13.5969
ltibia 68.0166
lfoot 9.18148 -6.04329
ltoes -15.2457
53
root 0.662609 17.7872 -25.352 -0.740048 3.92108 -4.88827
lowerback 21.3556 0.139335 0.627256
upperback 2.49419 0.602939 2.65768
thorax -9.25139 0.318907 2.38176
lowerneck -8.21849 2.90867 -0.700143
upperneck 28.7447 5.23782 -3.20016
head 10.6342 1.97348 -0.426146
rclavicle -1.59028e-015 1.35174e-014
rhumerus -42.6664 -17.2686 -64.3587
rradius 36.6535
rwrist -3.09132
rhand -8.65011 6.7729
rfingers 7.12502
rthumb 17.2832 -22.4786
lclavicle -1.59028e-015 1.35174e-014
lhumerus -45.3793 21.9897 77.0439
lradius 99.1675
lwrist 78.5986
lhand -19.9619 64.6838
lfingers 7.12502
lthumb 6.37662 -94.5678
rfemur -15.0393 3.18473 30.0298
rtibia 29.8449
rfoot -11.6636 -11.9204
rtoes 16.2342
lfemur -18.523 -0.00330726 -13.7933
ltibia 68.3891
lfoot 7.56635 -5.45595
ltoes -15.0066
54
root 0.650392 17.7897 -25.1719 -0.578801 3.93257 -4.93849
lowerback 20.7292 0.155926 0.911968
upperback 1.97605 0.673689 2.50008
thorax -9.48233 0.340894 2.0266
lowerneck -5.82877 2.73252 -0.170591
upperneck 28.0284 4.84664 -3.34951
head 9.91097 1.88467 -0.65422
rclavicle 2.95692e-015 4.96962e-015
rhumerus -44.0482 -16.914 -64.1528
rradius 37.3562
rwrist -3.50181
rhand -8.86716 7.02161
rfingers 7.12502
rthumb 17.0743 -22.2481
lclavicle 2.95692e-015 4.96962e-015
lhumerus -46.6056 21.4451 76.0813
lradius 101.077
lwrist 77.2825
lhand -19.4725 63.8278
lfingers 7.12502
lthumb 6.84903 -93.697
rfemur -14.4802 3.23781 30.2341
rtibia 29.7642
rfoot -11.2417 -12.1206
rtoes 10.987
lfemur -20.094 0.211639 -13.9248
ltibia 68.6259
lfoot 5.75599 -4.24181
ltoes -14.0812
55
root 0.643771 17.7834 -24.9859 -0.587369 3.80856 -4.95192
lowerback 20.3424 -0.030766 1.10865
upperback 2.71763 0.446065 2.54875
thorax -8.44557 0.222284 2.01805
lowerneck -8.70288 2.71392 -1.08021
upperneck 28.7096 4.92759 -2.79628
head 10.6892 1.82983 -0.244213
rclavicle -7.45443e-015 2.18663e-015
rhumerus -42.0139 -16.8854 -64.9528
rradius 37.7802
rwrist -3.90225
rhand -9.25951 6.54784
rfingers 7.12502
rthumb 16.6966 -22.7541
lclavicle -7.45443e-015 2.18663e-015
lhumerus -45.0061 22.3891 76.4836
lradius 102.624
lwrist 75.3164
lhand -20.4626 64.1037
lfingers 7.12502
lthumb 5.89321 -94.0017
rfemur -13.6931 3.24186 30.363
rtibia 29.6881
rfoot -10.3731 -12.0861
rtoes 2.98454
lfemur -21.3343 0.482007 -14.1383
ltibia 68.6294
lfoot 3.93127 -2.99523
ltoes -1.03133
56
root 0.615273 17.7709 -24.8411 -0.705598 4.26646 -5.26705
lowerback 20.463 -0.138364 1.47911
upperback 2.58619 0.397079 2.57034
thorax -8.65178 0.18786 1.84611
lowerneck -8.02748 2.51665 -0.696031
upperneck 28.2526 4.5718 -2.93701
head 10.3922 1.71117 -0.412708
rclavicle -1.61761e-014 -1.18277e-014
rhumerus -42.1797 -16.9163 -65.1354
rradius 38.506
rwrist -4.68223
rhand -9.78369 5.8208
rfingers 7.12502
rthumb 16.1919 -23.5229
lclavicle -1.61761e-014 -1.18277e-014
lhumerus -44.9946 21.9014 76.2291
lradius 104.57
lwrist 73.4903
lhand -21.4156 64.7716
lfingers 7.12502
lthumb 4.97306 -94.6932
rfemur -13.0497 3.29393 30.8967
rtibia 29.6648
rfoot -11.0584 -12.5285
rtoes 4.73255
lfemur -22.9376 0.280326 -13.8993
ltibia 68.6531
lfoot 2.54675 -2.30365
ltoes -19.6716
57
root 0.597151 17.7643 -24.6697 -0.789402 4.23105 -5.38334
lowerback 20.3826 -0.131395 1.60623
upperback 2.46888 0.437394 2.59187
thorax -8.73755 0.203231 1.78674
lowerneck -7.63723 2.39666 -0.692689
upperneck 28.1531 4.36096 -2.84253
head 10.2727 1.63276 -0.409206
rclavicle 2.09469e-014 -3.57812e-015
rhumerus -42.2992 -16.6747 -65.1948
rradius 39.0703
rwrist -5.18211
rhand -10.112 5.38825
rfingers 7.12502
rthumb 15.8758 -23.9809
lclavicle 2.09469e-014 -3.57812e-015
lhumerus -45.2027 21.5134 76.1824
lradius 106.333
lwrist 70.6899
lhand -22.1903 64.9439
lfingers 7.12502
lthumb 4.22505 -94.8817
rfemur -12.3305 3.38614 31.1938
rtibia 29.6831
rfoot -13.2143 -12.4029
rtoes 13.6835
lfemur -24.1855 0.478748 -13.9533
ltibia 68.4309
lfoot 1.16868 -1.81009
ltoes -14.2299
58
root 0.59073 17.7463 -24.4937 -0.820409 4.04236 -5.41592
lowerback 20.2551 -0.055995 1.79028
upperback 2.50885 0.567894 2.56081
thorax -8.62475 0.258742 1.61042
lowerneck -6.44025 2.40541 0.791235
upperneck 26.4983 4.4195 -4.37587
head 9.51149 1.692 -1.20764
rclavicle 3.23025e-016 5.36719e-015
rhumerus -42.2902 -16.4887 -65.2878
rradius 39.7795
rwrist -5.73699
rhand -10.4796 4.62789
rfingers 7.12502
rthumb 15.5218 -24.7691
lclavicle 3.23025e-016 5.36719e-015
lhumerus -44.9324 20.997 76.4471
lradius 107.887
lwrist 67.0069
lhand -23.9786 65.7246
lfingers 7.12502
lthumb 2.49802 -95.6897
rfemur -11.649 3.28798 31.3733
rtibia 29.731
rfoot -14.835 -12.1576
rtoes 16.6752
lfemur -25.3502 0.753444 -14.1873
ltibia 68.0824
lfoot -0.610452 -1.38268
ltoes -13.3489
59
root 0.581931 17.7216 -24.322 -0.869327 3.99912 -5.60843
lowerback 20.1838 -0.102732 2.0494
upperback 2.59499 0.567123 2.66132
thorax -8.49017 0.251922 1.5708
lowerneck -8.25498 2.19471 -0.864793
upperneck 27.9452 4.1034 -2.81514
head 10.3088 1.49583 -0.389807
rclavicle 1.88597e-014 -4.96962e-015
rhumerus -42.0958 -15.9307 -65.4743
rradius 40.6004
rwrist -6.47404
rhand -10.4687 5.62837
rfingers 7.12502
rthumb 15.5323 -23.7678
lclavicle 1.88597e-014 -4.96962e-015
lhumerus -44.3506 20.746 76.8494
lradius 109.3
lwrist 63.178
lhand -25.1088 66.1297
lfingers 7.12502
lthumb 1.4065 -96.1048
rfemur -11.0315 3.33323 31.752
rtibia 29.8315
rfoot -15.5164 -12.2734
rtoes 16.7238
lfemur -26.5076 0.849748 -14.2055
ltibia 67.5295
lfoot -2.63365 -1.00917
ltoes -13.5984
60
root 0.573896 17.6982 -24.1484 -0.991953 3.71631 -5.76867
lowerback 20.2377 0.0148562 2.26126
upperback 2.5658 0.774093 2.69989
thorax -8.55214 0.344077 1.43659
lowerneck -8.3538 2.0569 -0.896486
upperneck 28.0414 3.87252 -2.63831
head 10.3555 1.40392 -0.34611
rclavicle 1.15544e-014 4.96962e-016
rhumerus -42.0338 -15.9417 -65.4603
rradius 41.1364
rwrist -6.68249
rhand -10.714 5.89317
rfingers 7.12502
rthumb 15.296 -23.5212
lclavicle 1.15544e-014 4.96962e-016
lhumerus -43.9793 20.0267 77.2802
lradius 110.724
lwrist 59.4262
lhand -27.3817 66.826
lfingers 7.12502
lthumb -0.788698 -96.8043
rfemur -10.295 3.47286 32.059
rtibia 29.9876
rfoot -16.1561 -12.0873
rtoes 17.3639
lfemur -27.4578 1.13417 -14.2775
ltibia 66.7644
lfoot -3.95542 -0.304035
ltoes -14.9852
61
root 0.566336 17.6792 -23.9755 -1.09098 3.65385 -5.70771
lowerback 20.2803 0.0807907 2.27123
upperback 2.07925 0.88041 2.67313
thorax -9.11207 0.390416 1.37791
lowerneck -6.52052 1.9618 -0.656583
upperneck 27.5498 3.6599 -2.73299
head 9.82211 1.35204 -0.466271
rclavicle -9.14409e-015 -3.38928e-014
rhumerus -42.8546 -15.6206 -65.2704
rradius 41.577
rwrist -6.87965
rhand -10.5354 7.06807
rfingers 7.12502
rthumb 15.468 -22.3331
lclavicle -9.14409e-015 -3.38928e-014
lhumerus -44.6884 18.9873 77.342
lradius 112.207
lwrist 55.4364
lhand -28.7911 66.978
lfingers 7.12502
lthumb -2.14997 -96.9469
rfemur -9.53164 3.46603 32.0864
rtibia 30.1256
rfoot -17.1934 -11.7602
rtoes 19.9806
lfemur -28.3629 1.0981 -14.6185
ltibia 65.7854
lfoot -4.2676 0.691676
ltoes -12.346
